<svg width="50" height="50" viewBox="0 0 50 50" fill="none" xmlns="http://www.w3.org/2000/svg">
<g clip-path="url(#clip0_291_9)">
<path d="M43.723 50.0007H6.28744C2.85981 50.0007 0 47.3061 0 43.8991C0 43.8268 0 43.8268 0 43.7545V6.23638C0 2.82939 2.71527 -0.00976562 6.1429 -0.00976562C6.21517 -0.00976562 6.21517 -0.00976562 6.28744 -0.00976562H43.723C47.1506 -0.00976562 50.0104 2.68485 50.0104 6.09184C50.0104 6.16411 50.0104 6.16411 50.0104 6.23638V43.7545C50.0104 47.1615 47.2952 50.0007 43.8675 50.0007C43.7953 50.0007 43.7953 50.0007 43.723 50.0007Z" fill="#010101"/>
<path d="M33.5841 26.008C33.6151 23.5508 34.9056 21.2898 36.9911 20.0096C35.6696 18.1203 33.5325 16.964 31.2198 16.8917C28.7936 16.6336 26.4397 18.3474 25.2008 18.3474C23.9413 18.3474 22.0313 16.9227 19.9871 16.964C17.2925 17.0466 14.8353 18.5436 13.5241 20.9078C10.7263 25.7499 12.8118 32.8633 15.4961 36.7761C16.8382 38.6964 18.3972 40.8335 20.4517 40.751C22.4546 40.6684 23.2083 39.4707 25.6241 39.4707C28.0193 39.4707 28.7214 40.7509 30.8172 40.6993C32.9646 40.6684 34.3274 38.779 35.6179 36.8381C36.5781 35.4753 37.3214 33.9576 37.8067 32.3677C35.2566 31.2837 33.5944 28.7852 33.5841 26.008Z" fill="white"/>
<path d="M29.6403 14.3103C30.6934 13.0507 31.2715 11.4504 31.2715 9.79858C31.2715 9.62307 31.2612 9.43723 31.2509 9.26172C29.4545 9.44755 27.8026 10.3045 26.6153 11.6569C25.5416 12.8752 24.9531 14.4548 24.9531 16.0757C24.9531 16.2202 24.9531 16.3648 24.9634 16.5093C24.9841 16.5093 25.0047 16.5093 25.0254 16.5093C26.8218 16.5093 28.515 15.6937 29.6403 14.2999V14.3103Z" fill="white"/>
<path d="M43.723 0.991124C46.6551 0.991124 49.009 3.33472 49.009 6.23582V43.754C49.009 46.6654 46.6551 48.9987 43.723 48.9987H6.28744C3.35537 48.9987 1.00145 46.6551 1.00145 43.754V6.23582C1.00145 3.32439 3.35537 0.991124 6.28744 0.991124H43.723ZM43.723 0H6.28744C2.78754 0 0 2.83916 0 6.24614V43.7643C0 47.1713 2.71527 50.0104 6.1429 50.0104C6.21517 50.0104 6.21517 50.0104 6.28744 50.0104H43.723C47.1506 50.0104 50.0104 47.3158 50.0104 43.9088C50.0104 43.8366 50.0104 43.8366 50.0104 43.7643V6.24614C50.0104 2.83916 47.2229 0 43.723 0Z" fill="#A7A6A6"/>
</g>
<defs>
<clipPath id="clip0_291_9">
<rect width="50.0001" height="50.0001" fill="white"/>
</clipPath>
</defs>
</svg>
