<svg width="50" height="50" viewBox="0 0 50 50" fill="none" xmlns="http://www.w3.org/2000/svg">
<path d="M43.7143 50H6.28571C2.85714 50 0 47.305 0 43.9007C0 43.8298 0 43.8298 0 43.7589V6.24113C0 2.83688 2.71428 0 6.14286 0C6.21428 0 6.21429 0 6.28571 0H43.7143C47.1429 0 50 2.69504 50 6.09929C50 6.17021 50 6.17021 50 6.24113V43.7589C50 47.1631 47.2857 50 43.8571 50C43.7857 50 43.7857 50 43.7143 50Z" fill="#010101"/>
<path d="M43.7143 0.992909C46.6429 0.992909 49 3.33333 49 6.24113V43.7589C49 46.6667 46.6429 49.0071 43.7143 49.0071H6.28571C3.35714 49.0071 0.999998 46.6667 0.999998 43.7589V6.24113C0.999998 3.33333 3.35714 0.992909 6.28571 0.992909H43.7143ZM43.7143 0H6.28571C2.78571 0 0 2.83688 0 6.24113V43.7589C0 47.1631 2.71428 50 6.14286 50C6.21428 50 6.21429 50 6.28571 50H43.7143C47.1429 50 50 47.305 50 43.9007C50 43.8298 50 43.8298 50 43.7589V6.24113C50 2.83688 47.2143 0 43.7143 0Z" fill="#A7A6A6"/>
<path d="M13.2857 11.9141C13 12.3396 12.7857 12.836 12.8571 13.4034V36.524C12.8571 37.0914 13 37.5878 13.3571 38.0134L13.4285 38.0843L26.5 25.1056V24.8928L13.2857 11.9141Z" fill="url(#paint0_linear_154_22)"/>
<path d="M30.7856 29.5039L26.4285 25.1777V24.894L30.7856 20.6387L30.857 20.7805L35.9999 23.6883C37.4999 24.5394 37.4999 25.8869 35.9999 26.738L30.7856 29.5039Z" fill="url(#paint1_linear_154_22)"/>
<path d="M30.9285 29.362L26.4999 24.9648L13.2856 38.0854C13.7856 38.5819 14.5714 38.5819 15.4999 38.2273L30.9285 29.362Z" fill="url(#paint2_linear_154_22)"/>
<path d="M30.9285 20.5665L15.4999 11.914C14.5714 11.4176 13.7856 11.4885 13.2856 12.0559L26.4285 25.0346L30.9285 20.5665Z" fill="url(#paint3_linear_154_22)"/>
<path opacity="0.2" d="M30.7858 29.291L15.5001 37.8726C14.8572 38.369 14.0001 38.369 13.3572 37.8726L13.2144 38.0144L13.3572 38.0853C14.0001 38.5818 14.8572 38.5818 15.5001 38.0853L30.7858 29.291Z" fill="#010101"/>
<path opacity="0.12" d="M13.2857 37.8733C13 37.4477 12.7857 36.9513 12.8571 36.3839V36.5257C12.8571 37.0931 13 37.5896 13.3571 38.0151V37.8733H13.2857ZM36.0714 26.313L30.7857 29.2208L30.8571 29.2917L36 26.3839C36.6428 26.1711 37 25.6038 37.0714 24.8945C37.1428 25.5328 36.7142 25.9584 36.0714 26.313Z" fill="#010101"/>
<path opacity="0.25" d="M15.5 11.9853L36.0715 23.6165C36.7143 24.042 37.1429 24.4676 37.1429 24.964C37.0715 24.3257 36.7143 23.7584 36.0715 23.4747L15.5 11.9144C14 11.0633 12.8572 11.7016 12.8572 13.4038V13.5456C12.8572 11.9144 14 11.1343 15.5 11.9853Z" fill="white"/>
<defs>
<linearGradient id="paint0_linear_154_22" x1="24.9532" y1="13.4607" x2="7.48539" y2="31.1856" gradientUnits="userSpaceOnUse">
<stop stop-color="#4998D3"/>
<stop offset="0.01" stop-color="#4A99D3"/>
<stop offset="0.26" stop-color="#42BAEB"/>
<stop offset="0.51" stop-color="#41C7F2"/>
<stop offset="0.76" stop-color="#56C9E9"/>
<stop offset="1" stop-color="#5BCAE8"/>
</linearGradient>
<linearGradient id="paint1_linear_154_22" x1="37.6407" y1="25.0546" x2="12.1095" y2="25.0546" gradientUnits="userSpaceOnUse">
<stop stop-color="#FEE000"/>
<stop offset="0.41" stop-color="#FEBD11"/>
<stop offset="0.78" stop-color="#FAA51A"/>
<stop offset="1" stop-color="#F99C1C"/>
</linearGradient>
<linearGradient id="paint2_linear_154_22" x1="28.0976" y1="27.7498" x2="4.32433" y2="51.6916" gradientUnits="userSpaceOnUse">
<stop stop-color="#EF4049"/>
<stop offset="1" stop-color="#C31E63"/>
</linearGradient>
<linearGradient id="paint3_linear_154_22" x1="9.97978" y1="4.26763" x2="20.6187" y2="14.9825" gradientUnits="userSpaceOnUse">
<stop stop-color="#32A072"/>
<stop offset="0.07" stop-color="#2DA771"/>
<stop offset="0.48" stop-color="#4BBA71"/>
<stop offset="0.8" stop-color="#5EBD6B"/>
<stop offset="1" stop-color="#66BE69"/>
</linearGradient>
</defs>
</svg>
