<svg width="709" height="798" viewBox="0 0 709 798" fill="none" xmlns="http://www.w3.org/2000/svg">
<path d="M0.999949 743.14C0.999949 495.504 1.03737 248.205 1.0748 0.605959C125.997 0.605959 256.832 -2.91192 382.278 7.34232C446.273 12.5817 509.894 35.8596 559.294 76.8765C632.272 137.541 661.799 241.88 640.692 333.195C627.818 388.92 595.783 439.33 550.051 473.835C532.873 486.784 513.899 497.375 493.727 504.822C565.469 595.763 637.249 686.704 708.991 777.645C619.809 803.131 521.795 803.617 436.057 768.214C350.318 732.773 278.837 659.01 256.495 568.968C234.153 478.925 266.6 375.035 342.459 321.631C357.69 339.595 372.959 357.596 388.191 375.559C411.095 302.32 433.998 229.081 456.902 155.842L212.372 158.761C229.924 181.178 247.513 203.595 265.065 226.012C173.413 327.17 148.227 483.528 203.502 608.338C136.027 653.247 68.5132 698.156 0.962524 743.14H0.999949Z" fill="url(#paint0_linear_829_27)"/>
<path d="M203.54 608.326C190.741 579.21 161.213 501.48 178.728 402.567C195.082 310.13 243.546 249.877 265.103 226C217.462 265.745 126.633 352.831 74.3888 494.781C41.1187 585.16 35.2431 665.847 35.8793 719.925L203.54 608.363V608.326Z" fill="url(#paint1_linear_829_27)"/>
<path d="M592.677 633.704C506.976 678.763 400.728 657.244 339.802 582.919C277.865 507.36 278.8 396.696 342.459 321.586C342.459 321.586 230.897 398.68 253.127 552.793C275.357 706.906 472.92 850.278 708.992 777.6L592.64 633.667L592.677 633.704Z" fill="url(#paint2_linear_829_27)"/>
<defs>
<linearGradient id="paint0_linear_829_27" x1="664.644" y1="826.671" x2="-38.2954" y2="62.2062" gradientUnits="userSpaceOnUse">
<stop stop-color="#353F90"/>
<stop offset="1" stop-color="#36A2DF"/>
</linearGradient>
<linearGradient id="paint1_linear_829_27" x1="206.721" y1="671.498" x2="94.2611" y2="274.39" gradientUnits="userSpaceOnUse">
<stop offset="0.25" stop-color="#353F90"/>
<stop offset="0.8" stop-color="#368ACB"/>
</linearGradient>
<linearGradient id="paint2_linear_829_27" x1="737.509" y1="704.548" x2="163.459" y2="440.969" gradientUnits="userSpaceOnUse">
<stop offset="0.43" stop-color="#353F90"/>
<stop offset="0.8" stop-color="#356AB2"/>
</linearGradient>
</defs>
</svg>
