<svg xmlns="http://www.w3.org/2000/svg" xml:space="preserve" width="62.0846mm" height="19.2924mm" style="shape-rendering:geometricPrecision;text-rendering:geometricPrecision;image-rendering:optimizeQuality;fill-rule:evenodd;clip-rule:evenodd" viewBox="0 0 283.27 88.03"><defs><linearGradient id="id0" x1="14.69" x2="35.67" y1="-88.49" y2="-67.78" gradientUnits="userSpaceOnUse"><stop offset="0" style="stop-opacity:1;stop-color:#32a071"/><stop offset="0.0705882" style="stop-opacity:1;stop-color:#2da771"/><stop offset="0.470588" style="stop-opacity:1;stop-color:#15cf74"/><stop offset="0.8" style="stop-opacity:1;stop-color:#06e775"/><stop offset="1" style="stop-opacity:1;stop-color:#00f076"/></linearGradient><linearGradient id="id1" x1="44.06" x2="10.49" y1="-73.44" y2="-37.77" gradientUnits="userSpaceOnUse"><stop offset="0" style="stop-opacity:1;stop-color:#00a0ff"/><stop offset="0.0117647" style="stop-opacity:1;stop-color:#00a1ff"/><stop offset="0.258824" style="stop-opacity:1;stop-color:#00beff"/><stop offset="0.509804" style="stop-opacity:1;stop-color:#00d2ff"/><stop offset="0.760784" style="stop-opacity:1;stop-color:#00dfff"/><stop offset="1" style="stop-opacity:1;stop-color:#00e3ff"/></linearGradient><linearGradient id="id2" x1="68.54" x2="19.86" y1="-48.26" y2="-48.26" gradientUnits="userSpaceOnUse"><stop offset="0" style="stop-opacity:1;stop-color:#ffe000"/><stop offset="0.411765" style="stop-opacity:1;stop-color:#ffbd00"/><stop offset="0.780392" style="stop-opacity:1;stop-color:orange"/><stop offset="1" style="stop-opacity:1;stop-color:#ff9c00"/></linearGradient><linearGradient id="id3" x1="50.36" x2="4.2" y1="-43.33" y2="2.44" gradientUnits="userSpaceOnUse"><stop offset="0" style="stop-opacity:1;stop-color:#ff3a44"/><stop offset="1" style="stop-opacity:1;stop-color:#c31162"/></linearGradient><style>.fil1,.fil7{fill:#000;fill-rule:nonzero}.fil7{fill-opacity:.2}</style></defs><g id="Layer_x0020_1"><g id="_3067956591424"><path d="M272.78 83.93l-262.29 0c-5.88,0 -10.49,-4.62 -10.49,-10.49l0 -62.95c0,-5.87 4.62,-10.49 10.49,-10.49l262.29 0c5.88,0 10.49,4.62 10.49,10.49l0 62.95c0,5.88 -4.62,10.49 -10.49,10.49z" style="fill:#000;fill-rule:nonzero"/><path d="M272.78 1.68c4.83,0 8.81,3.99 8.81,8.81l0 62.95c0,4.83 -3.99,8.81 -8.81,8.81l-262.29 0c-4.83,0 -8.81,-3.99 -8.81,-8.81l0 -62.95c0,-4.83 3.99,-8.81 8.81,-8.81l262.29 0 0 0zm0 -1.68l-262.29 0c-5.88,0 -10.49,4.83 -10.49,10.49l0 62.95c0,5.88 4.62,10.49 10.49,10.49l262.29 0c5.88,0 10.49,-4.62 10.49,-10.49l0 -62.95c0,-5.67 -4.62,-10.49 -10.49,-10.49z" class="fil1"/><path d="M99.46 21.4c0 1.68-.42 3.15-1.47 4.2-1.26 1.26-2.73 1.89-4.62 1.89-1.89 0-3.36-.63-4.62-1.89-1.26-1.26-1.89-2.73-1.89-4.62 0-1.89.63-3.36 1.89-4.62 1.26-1.26 2.73-1.89 4.62-1.89.84 0 1.68.21 2.52.63.84.42 1.47.84 1.89 1.47l-1.05 1.05c-.84-1.05-1.89-1.47-3.36-1.47-1.26 0-2.52.42-3.36 1.47-1.05.84-1.47 2.1-1.47 3.57 0 1.47.42 2.73 1.47 3.57 1.05.84 2.1 1.47 3.36 1.47 1.47 0 2.52-.42 3.57-1.47.63-.63 1.05-1.47 1.05-2.52l-4.62 0 0-1.68 6.09 0 0 .84zm9.65-5.25-5.67 0 0 3.99 5.25 0 0 1.47-5.25 0 0 3.99 5.67 0 0 1.68-7.34 0 0-12.59 7.34 0 0 1.47zm6.92 11.12-1.68 0 0-11.12-3.57 0 0-1.47 8.81 0 0 1.47-3.57 0 0 11.12zm9.65 0 0-12.59 1.68 0 0 12.59-1.68 0zm8.81 0-1.68 0 0-11.12-3.57 0 0-1.47 8.6 0 0 1.47-3.57 0 0 11.12.21 0zm19.93-1.68c-1.26 1.26-2.73 1.89-4.62 1.89-1.89 0-3.36-.63-4.62-1.89-1.26-1.26-1.89-2.73-1.89-4.62 0-1.89.63-3.36 1.89-4.62 1.26-1.26 2.73-1.89 4.62-1.89 1.89 0 3.36.63 4.62 1.89 1.26 1.26 1.89 2.73 1.89 4.62 0 1.89-.63 3.36-1.89 4.62zm-7.97-1.05c.84.84 2.1 1.47 3.36 1.47 1.26 0 2.52-.42 3.36-1.47.84-.84 1.47-2.1 1.47-3.57 0-1.47-.42-2.73-1.47-3.57-.84-.84-2.1-1.47-3.36-1.47-1.26 0-2.52.42-3.36 1.47-.84.84-1.47 2.1-1.47 3.57 0 1.47.42 2.73 1.47 3.57zm12.17 2.73 0-12.59 1.89 0 6.08 9.86 0-9.86 1.68 0 0 12.59-1.68 0-6.5-10.28 0 10.28-1.47 0zM142.9 45.74c-5.04 0-9.02 3.78-9.02 9.02 0 5.04 3.99 9.02 9.02 9.02 5.04 0 9.02-3.78 9.02-9.02 0-5.46-3.99-9.02-9.02-9.02zm0 14.27c-2.73 0-5.04-2.31-5.04-5.46 0-3.15 2.31-5.46 5.04-5.46 2.73 0 5.04 2.1 5.04 5.46 0 3.15-2.31 5.46-5.04 5.46zm-19.51-14.27c-5.04 0-9.02 3.78-9.02 9.02 0 5.04 3.99 9.02 9.02 9.02 5.04 0 9.02-3.78 9.02-9.02 0-5.46-3.99-9.02-9.02-9.02zm0 14.27c-2.73 0-5.04-2.31-5.04-5.46 0-3.15 2.31-5.46 5.04-5.46 2.73 0 5.04 2.1 5.04 5.46 0 3.15-2.31 5.46-5.04 5.46zm-23.29-11.54 0 3.78 9.02 0c-.21 2.1-1.05 3.78-2.1 4.83-1.26 1.26-3.36 2.73-6.92 2.73-5.67 0-9.86-4.41-9.86-10.07 0-5.67 4.41-10.07 9.86-10.07 2.94 0 5.25 1.26 6.92 2.73l2.73-2.73c-2.31-2.1-5.25-3.78-9.44-3.78-7.55 0-14.06 6.29-14.06 13.85 0 7.55 6.5 13.85 14.06 13.85 4.2 0 7.13-1.26 9.65-3.99 2.52-2.52 3.36-6.09 3.36-8.81 0-.84 0-1.68-.21-2.31l-13.01 0zm95.26 2.94c-.84-2.1-2.94-5.67-7.55-5.67-4.62 0-8.39 3.57-8.39 9.02 0 5.04 3.78 9.02 8.81 9.02 3.99 0 6.51-2.52 7.34-3.99l-2.94-2.1c-1.05 1.47-2.31 2.52-4.41 2.52-2.1 0-3.36-.84-4.41-2.73l11.96-5.04-.42-1.05zm-12.17 2.94c0-3.36 2.73-5.25 4.62-5.25 1.47 0 2.94.84 3.36 1.89l-7.97 3.36 0 0zm-9.86 8.6 3.99 0 0-26.23-3.99 0 0 26.23zm-6.3-15.32c-1.05-1.05-2.73-2.1-4.83-2.1-4.41 0-8.6 3.99-8.6 9.02 0 5.04 3.99 8.81 8.6 8.81 2.1 0 3.78-1.05 4.62-2.1l.21 0 0 1.26c0 3.36-1.89 5.25-4.83 5.25-2.31 0-3.99-1.68-4.41-3.15l-3.36 1.47c1.05 2.31 3.57 5.25 7.97 5.25 4.62 0 8.39-2.73 8.39-9.23l0-15.95-3.78 0 0 1.47zm-4.62 12.38c-2.73 0-5.04-2.31-5.04-5.46 0-3.15 2.31-5.46 5.04-5.46 2.73 0 4.83 2.31 4.83 5.46 0 3.15-2.1 5.46-4.83 5.46zm51.2-23.29-9.44 0 0 26.23 3.99 0 0-9.86 5.46 0c4.41 0 8.6-3.15 8.6-8.18 0-5.04-4.2-8.18-8.6-8.18l0 0zm.21 12.59-5.67 0 0-9.02 5.67 0c2.94 0 4.62 2.52 4.62 4.41-.21 2.31-1.89 4.62-4.62 4.62zm24.13-3.78c-2.94 0-5.88 1.26-6.92 3.99l3.57 1.47c.84-1.47 2.1-1.89 3.57-1.89 2.1 0 3.99 1.26 4.2 3.36l0 .21c-.63-.42-2.31-1.05-3.99-1.05-3.78 0-7.55 2.1-7.55 5.87 0 3.57 3.15 5.88 6.5 5.88 2.73 0 3.99-1.26 5.04-2.52l.21 0 0 2.1 3.78 0 0-10.07c-.42-4.62-3.99-7.34-8.39-7.34zm-.42 14.48c-1.26 0-3.15-.63-3.15-2.31 0-2.1 2.31-2.73 4.2-2.73 1.68 0 2.52.42 3.57.84-.42 2.52-2.52 4.2-4.62 4.2l0 0zm22.03-13.85-4.41 11.33-.21 0-4.62-11.33-4.2 0 6.92 15.95-3.99 8.81 3.99 0 10.7-24.76-4.2 0zm-35.25 16.79 3.99 0 0-26.23-3.99 0 0 26.23z" style="fill-rule:nonzero;fill:#fff"/><g id="_3067956591952"><path d="M21.82 15.74c-0.63,0.63 -0.84,1.68 -0.84,2.94l0 46.37c0,1.26 0.42,2.31 1.05,2.94l0.21 0.21 26.02 -26.02 0 -0.42 -26.44 -26.02z" style="fill:url(#id1);fill-rule:nonzero"/><path d="M56.65 50.99l-8.6 -8.6 0 -0.63 8.6 -8.6 0.21 0.21 10.28 5.88c2.94,1.68 2.94,4.41 0,6.08l-10.49 5.67 0 0z" style="fill:url(#id2);fill-rule:nonzero"/><path d="M56.86 50.78l-8.81 -8.81 -26.23 26.23c1.05,1.05 2.52,1.05 4.41,0.21l30.64 -17.63z" style="fill:url(#id3);fill-rule:nonzero"/><path d="M56.86 33.15l-30.64 -17.42c-1.89,-1.05 -3.36,-0.84 -4.41,0.21l26.23 26.02 8.81 -8.81z" style="fill:url(#id0);fill-rule:nonzero"/><path d="M56.65 50.57l-30.43 17.21c-1.68,1.05 -3.15,0.84 -4.2,0l-0.21 0.21 0.21 0.21c1.05,0.84 2.52,1.05 4.2,0l30.43 -17.63z" class="fil7"/><path d="M21.82 67.78c-0.63,-0.63 -0.84,-1.68 -0.84,-2.94l0 0.21c0,1.26 0.42,2.31 1.05,2.94l0 -0.21 -0.21 0zm45.32 -23.08l-10.49 5.88 0.21 0.21 10.28 -5.88c1.47,-0.84 2.1,-1.89 2.1,-2.94 0,1.05 -0.84,1.89 -2.1,2.73z" class="fil7"/><path d="M26.23 15.95l40.92 23.29c1.26,0.84 2.1,1.68 2.1,2.73 0,-1.05 -0.63,-2.1 -2.1,-2.94l-40.92 -23.29c-2.94,-1.68 -5.25,-0.42 -5.25,2.94l0 0.21c0,-3.15 2.31,-4.62 5.25,-2.94l-0 0z" style="fill:#fff;fill-rule:nonzero;fill-opacity:.2"/></g><path d="M281.59 73.44l0 4.09c-1.95,4.02 -4.79,5.59 -9.62,5.59l-260.42 -0.26c-4.83,0 -8.07,-1.56 -9.88,-5.33l0 -4.09 279.92 0zm-281.59 0l0 4.09c0,5.88 4.62,10.49 10.49,10.49l262.29 0c5.88,0 10.49,-4.62 10.49,-10.49l0 -4.09 -1.68 0 -279.92 0 -1.68 0z" class="fil1"/></g></g></svg>