<?xml version="1.0" encoding="UTF-8"?>
<!DOCTYPE svg PUBLIC "-//W3C//DTD SVG 1.1//EN" "http://www.w3.org/Graphics/SVG/1.1/DTD/svg11.dtd">
<!-- Creator: CorelDRAW 2021 (64-Bit) -->
<svg xmlns="http://www.w3.org/2000/svg" xml:space="preserve" width="62.0846mm" height="19.2924mm" version="1.1" style="shape-rendering:geometricPrecision; text-rendering:geometricPrecision; image-rendering:optimizeQuality; fill-rule:evenodd; clip-rule:evenodd"
viewBox="0 0 315.84 98.15"
 xmlns:xlink="http://www.w3.org/1999/xlink"
 xmlns:xodm="http://www.corel.com/coreldraw/odm/2003">
 <defs>
  <style type="text/css">
   <![CDATA[
    .fil1 {fill:black;fill-rule:nonzero}
    .fil0 {fill:#000000;fill-rule:nonzero}
    .fil3 {fill:white;fill-rule:nonzero}
    .fil2 {fill:white;fill-rule:nonzero}
   ]]>
  </style>
 </defs>
 <g id="Layer_x0020_1">
  <metadata id="CorelCorpID_0Corel-Layer"/>
  <g id="_3068569513664">
   <g>
    <path class="fil0" d="M304.15 93.58l-292.45 0c-6.55,0 -11.7,-5.15 -11.7,-11.7l0 -70.19c0,-6.55 5.15,-11.7 11.7,-11.7l292.45 0c6.55,0 11.7,5.15 11.7,11.7l0 70.19c0,6.55 -5.15,11.7 -11.7,11.7z"/>
    <g>
     <path class="fil1" d="M304.15 1.87c5.38,0 9.83,4.45 9.83,9.83l0 70.19c0,5.38 -4.45,9.83 -9.83,9.83l-292.45 0c-5.38,0 -9.83,-4.44 -9.83,-9.83l0 -70.19c0,-5.38 4.45,-9.83 9.83,-9.83l292.45 0 0 0zm0 -1.87l-292.45 0c-6.55,0 -11.7,5.38 -11.7,11.7l0 70.19c0,6.55 5.15,11.7 11.7,11.7l292.45 0c6.55,0 11.7,-5.15 11.7,-11.7l0 -70.19c0,-6.32 -5.15,-11.7 -11.7,-11.7z"/>
    </g>
    <g>
     <path class="fil1" d="M313.97 81.89l0 4.56c-2.17,4.48 -5.34,6.24 -10.72,6.24l-290.36 -0.29c-5.38,0 -9,-1.73 -11.02,-5.94l0 -4.56 312.1 0zm-313.97 0l0 4.56c0,6.55 5.15,11.7 11.7,11.7l292.45 0c6.55,0 11.7,-5.15 11.7,-11.7l0 -4.56 -1.87 0 -312.1 0 -1.87 0z"/>
    </g>
   </g>
   <g>
    <path class="fil2" d="M105.83 33.85c-1.39,0 -2.59,-0.07 -3.59,-0.18l0 -15.06c1.37,-0.21 2.76,-0.32 4.15,-0.32 0.02,0 0.05,0 0.08,0 5.72,0 8.36,2.82 8.36,7.4 0,5.29 -3.11,8.15 -9,8.15l0 0zm0.72 -13.73c-0.77,0 -1.43,0.05 -1.98,0.16l0 11.45c0.3,0.05 0.86,0.07 1.66,0.07 3.75,0 5.88,-2.13 5.88,-6.13 0,-3.56 -1.93,-5.54 -5.57,-5.54l0 -0zm16.49 13.84c-3.23,0 -5.32,-2.41 -5.32,-5.68 0,-3.41 2.13,-5.84 5.5,-5.84 3.18,0 5.32,2.29 5.32,5.66 0,3.45 -2.2,5.86 -5.5,5.86zm0.09 -9.72c-1.77,0 -2.91,1.66 -2.91,3.97 0,2.27 1.16,3.93 2.88,3.93 1.73,0 2.88,-1.77 2.88,-3.98 0,-2.25 -1.13,-3.93 -2.86,-3.93l0 0zm23.8 -1.57l-3.45 11.04 -2.25 0 -1.43 -4.79c-0.35,-1.17 -0.65,-2.37 -0.89,-3.56l-0.05 -0c-0.18,1.2 -0.52,2.41 -0.88,3.56l-1.52 4.79 -2.27 0 -3.25 -11.04 2.52 0 1.25 5.25c0.3,1.25 0.54,2.43 0.75,3.54l0.05 0c0.18,-0.93 0.48,-2.09 0.91,-3.52l1.57 -5.27 2 0 1.5 5.16c0.36,1.25 0.66,2.48 0.89,3.63l0.07 0c0.16,-1.13 0.41,-2.34 0.75,-3.63l1.34 -5.16 2.41 -0 0 0zm12.71 11.04l-2.45 0 0 -6.34c0,-1.95 -0.75,-2.93 -2.23,-2.93 -1.45,0 -2.45,1.25 -2.45,2.7l0 6.56 -2.45 0 0 -7.88c0,-0.98 -0.02,-2.02 -0.09,-3.16l2.16 0 0.11 1.7 0.07 0c0.66,-1.18 2,-1.93 3.5,-1.93 2.32,0 3.84,1.77 3.84,4.65l-0 6.61 0 0zm6.77 0l-2.46 0 0 -16.1 2.46 0 0 16.1zm8.94 0.25c-3.22,0 -5.32,-2.41 -5.32,-5.68 0,-3.41 2.14,-5.84 5.5,-5.84 3.18,0 5.32,2.29 5.32,5.66 0,3.45 -2.2,5.86 -5.5,5.86zm0.09 -9.72c-1.77,0 -2.91,1.66 -2.91,3.97 0,2.27 1.16,3.93 2.88,3.93 1.73,0 2.88,-1.77 2.88,-3.98 0,-2.25 -1.13,-3.93 -2.86,-3.93l0 0zm15.08 9.47l-0.18 -1.27 -0.07 0c-0.75,1.02 -1.84,1.52 -3.23,1.52 -1.98,0 -3.38,-1.39 -3.38,-3.25 0,-2.72 2.36,-4.13 6.45,-4.13l0 -0.2c0,-1.45 -0.77,-2.18 -2.29,-2.18 -1.09,0 -2.04,0.27 -2.88,0.82l-0.5 -1.61c1.02,-0.64 2.29,-0.95 3.79,-0.95 2.88,0 4.34,1.52 4.34,4.57l0 4.06c0,1.11 0.05,1.98 0.16,2.64l-2.21 -0 0 0zm-0.34 -5.5c-2.72,0 -4.09,0.66 -4.09,2.23 0,1.16 0.7,1.73 1.68,1.73 1.25,0 2.41,-0.95 2.41,-2.25l0 -1.7zm14.3 5.5l-0.11 -1.77 -0.07 0c-0.7,1.34 -1.89,2.02 -3.54,2.02 -2.66,0 -4.63,-2.34 -4.63,-5.63 0,-3.45 2.04,-5.88 4.83,-5.88 1.48,0 2.52,0.5 3.11,1.5l0.05 0 0 -6.34 2.46 0 0 13.13c0,1.07 0.03,2.07 0.09,2.97l-2.18 0zm-0.36 -6.49c0,-1.54 -1.02,-2.86 -2.58,-2.86 -1.82,0 -2.93,1.61 -2.93,3.88 0,2.23 1.15,3.75 2.88,3.75 1.54,0 2.63,-1.34 2.63,-2.93l0 -1.84 0 0zm18.02 6.74c-3.22,0 -5.31,-2.41 -5.31,-5.68 0,-3.41 2.14,-5.84 5.5,-5.84 3.18,0 5.32,2.29 5.32,5.66 0,3.45 -2.2,5.86 -5.5,5.86zm0.09 -9.72c-1.77,0 -2.9,1.66 -2.9,3.97 0,2.27 1.16,3.93 2.88,3.93 1.73,0 2.88,-1.77 2.88,-3.98 0.01,-2.25 -1.13,-3.93 -2.86,-3.93l0 0zm18.6 9.47l-2.46 0 0 -6.34c0,-1.95 -0.75,-2.93 -2.23,-2.93 -1.45,0 -2.45,1.25 -2.45,2.7l0 6.56 -2.46 0 0 -7.88c0,-0.98 -0.02,-2.02 -0.09,-3.16l2.16 0 0.11 1.7 0.07 0c0.66,-1.18 2,-1.93 3.5,-1.93 2.32,0 3.84,1.77 3.84,4.65l0 6.61 0 0zm16.51 -9.2l-2.7 0 0 5.36c0,1.36 0.47,2.05 1.43,2.05 0.43,0 0.8,-0.05 1.09,-0.11l0.07 1.86c-0.48,0.18 -1.11,0.27 -1.9,0.27 -1.93,0 -3.09,-1.07 -3.09,-3.86l-0 -5.57 -1.61 0 0 -1.84 1.61 0 0 -2.02 2.41 -0.73 0 2.75 2.7 0 0 1.84zm12.99 9.2l-2.45 0 0 -6.29c0,-1.97 -0.75,-2.97 -2.23,-2.97 -1.27,0 -2.46,0.86 -2.46,2.61l0 6.65 -2.45 0 0 -16.1 2.45 0 0 6.63 0.05 0c0.77,-1.2 1.89,-1.8 3.32,-1.8 2.34,0 3.76,1.82 3.76,4.7l0 6.56zm13.31 -4.93l-7.36 0c0.05,2.09 1.43,3.27 3.48,3.27 1.09,0 2.09,-0.18 2.98,-0.52l0.38 1.7c-1.04,0.45 -2.27,0.68 -3.7,0.68 -3.45,0 -5.5,-2.18 -5.5,-5.56 0,-3.38 2.09,-5.93 5.22,-5.93 2.82,0 4.59,2.09 4.59,5.25 0,0.07 0.01,0.13 0.01,0.2 0,0.31 -0.03,0.61 -0.09,0.91l-0 -0zm-2.17 -1.9c0,-1.7 -0.86,-2.91 -2.43,-2.91 -1.41,0 -2.52,1.23 -2.68,2.91l5.11 0z"/>
   </g>
   <path class="fil3" d="M70.53 48.58c-0.07,-7.54 6.18,-11.21 6.46,-11.38 -3.54,-5.16 -9.02,-5.86 -10.95,-5.92 -4.6,-0.48 -9.07,2.75 -11.42,2.75 -2.39,0 -6,-2.71 -9.9,-2.63 -5.01,0.08 -9.7,2.98 -12.27,7.48 -5.3,9.18 -1.35,22.67 3.73,30.09 2.54,3.64 5.51,7.69 9.4,7.55 3.8,-0.15 5.22,-2.42 9.81,-2.42 4.55,0 5.88,2.42 9.85,2.33 4.08,-0.06 6.65,-3.65 9.11,-7.32 2.94,-4.16 4.12,-8.27 4.16,-8.48 -0.09,-0.03 -7.93,-3.02 -8.01,-12.06l0 0zm-7.49 -22.18c2.05,-2.56 3.45,-6.04 3.06,-9.57 -2.96,0.13 -6.66,2.05 -8.8,4.55 -1.89,2.2 -3.57,5.82 -3.14,9.22 3.33,0.25 6.74,-1.68 8.88,-4.2z"/>
   <g>
    <path class="fil2" d="M125.62 76.01l-5.32 0 -2.91 -9.15 -10.12 0 -2.77 9.15 -5.18 0 10.03 -31.14 6.19 0 10.07 31.14zm-9.11 -12.99l-2.63 -8.13c-0.28,-0.83 -0.8,-2.79 -1.57,-5.87l-0.09 0c-0.31,1.32 -0.8,3.28 -1.48,5.87l-2.59 8.13 8.37 0zm34.85 1.48c0,3.82 -1.04,6.84 -3.11,9.05 -1.86,1.97 -4.17,2.96 -6.92,2.96 -2.98,0 -5.11,-1.06 -6.41,-3.19l0 11.78 -4.99 0 0 -24.18c0,-2.4 -0.06,-4.86 -0.18,-7.38l4.39 0 0.28 3.56 0.09 0c1.66,-2.68 4.19,-4.02 7.58,-4.02 2.65,0 4.86,1.05 6.63,3.14 1.77,2.1 2.65,4.86 2.65,8.28l0 0zm-5.08 0.18c0,-2.19 -0.49,-3.99 -1.48,-5.41 -1.08,-1.48 -2.53,-2.22 -4.34,-2.22 -1.23,0 -2.35,0.41 -3.35,1.22 -1,0.82 -1.66,1.89 -1.96,3.21 -0.14,0.49 -0.21,1.01 -0.23,1.52l0 3.75c0,1.63 0.5,3.01 1.5,4.14 1,1.12 2.3,1.69 3.9,1.69 1.88,0 3.34,-0.73 4.39,-2.17 1.05,-1.45 1.57,-3.36 1.57,-5.73l-0 0zm30.92 -0.18c0,3.82 -1.04,6.84 -3.11,9.05 -1.86,1.97 -4.17,2.96 -6.93,2.96 -2.98,0 -5.11,-1.06 -6.41,-3.19l0 11.78 -4.99 0 0 -24.18c0,-2.4 -0.06,-4.86 -0.19,-7.38l4.39 0 0.28 3.56 0.09 0c1.66,-2.68 4.19,-4.02 7.58,-4.02 2.65,0 4.86,1.05 6.63,3.14 1.77,2.1 2.65,4.86 2.65,8.28l0 0zm-5.09 0.18c0,-2.19 -0.49,-3.99 -1.48,-5.41 -1.08,-1.48 -2.52,-2.22 -4.34,-2.22 -1.23,0 -2.35,0.41 -3.35,1.22 -1,0.82 -1.65,1.89 -1.96,3.21 -0.15,0.62 -0.23,1.12 -0.23,1.52l0 3.75c0,1.63 0.5,3.01 1.5,4.14 1,1.12 2.3,1.69 3.91,1.69 1.88,0 3.34,-0.73 4.39,-2.17 1.05,-1.45 1.57,-3.36 1.57,-5.73l0 0zm33.97 2.59c0,2.65 -0.93,4.81 -2.77,6.47 -2.03,1.82 -4.86,2.73 -8.49,2.73 -3.35,0 -6.04,-0.65 -8.07,-1.94l1.15 -4.16c2.19,1.3 4.59,1.94 7.21,1.94 1.88,0 3.34,-0.43 4.39,-1.27 1.05,-0.85 1.58,-1.98 1.58,-3.39 0,-1.27 -0.44,-2.33 -1.3,-3.19 -0.86,-0.86 -2.29,-1.66 -4.3,-2.4 -5.45,-2.03 -8.18,-5.01 -8.18,-8.92 0,-2.56 0.96,-4.65 2.89,-6.28 1.92,-1.63 4.48,-2.45 7.65,-2.45 2.84,0 5.2,0.49 7.07,1.48l-1.25 4.07c-1.76,-0.95 -3.76,-1.43 -5.99,-1.43 -1.76,0 -3.14,0.43 -4.13,1.29 -0.83,0.77 -1.25,1.71 -1.25,2.82 0,1.23 0.48,2.25 1.44,3.05 0.83,0.74 2.34,1.54 4.53,2.4 2.68,1.08 4.65,2.34 5.92,3.79 1.27,1.45 1.9,3.25 1.9,5.4l0 0zm16.54 -9.98l-5.5 0 0 10.9c0,2.77 0.97,4.16 2.91,4.16 0.89,0 1.63,-0.07 2.22,-0.23l0.14 3.79c-0.98,0.37 -2.28,0.55 -3.88,0.55 -1.97,0 -3.51,-0.6 -4.62,-1.8 -1.11,-1.2 -1.66,-3.22 -1.66,-6.05l0 -11.32 -3.28 0 0 -3.74 3.28 0 0 -4.11 4.9 -1.48 0 5.59 5.5 0 0 3.75zm24.77 7.3c0,3.45 -0.99,6.29 -2.96,8.5 -2.06,2.28 -4.81,3.42 -8.23,3.42 -3.3,0 -5.93,-1.09 -7.88,-3.28 -1.96,-2.19 -2.94,-4.94 -2.94,-8.27 0,-3.48 1.01,-6.33 3.03,-8.55 2.02,-2.22 4.74,-3.33 8.16,-3.33 3.3,0 5.94,1.1 7.95,3.28 1.91,2.12 2.87,4.86 2.87,8.22l0 0zm-5.17 0.11c0,-2.06 -0.44,-3.82 -1.34,-5.3 -1.05,-1.78 -2.54,-2.67 -4.48,-2.67 -2,0 -3.53,0.89 -4.58,2.67 -0.89,1.48 -1.34,3.27 -1.34,5.39 0,2.06 0.44,3.83 1.34,5.3 1.08,1.78 2.58,2.67 4.53,2.67 1.91,0 3.4,-0.91 4.48,-2.72 0.92,-1.51 1.38,-3.29 1.38,-5.35l0 0zm21.4 -6.77c-0.51,-0.09 -1.03,-0.14 -1.54,-0.14 -0.01,0 -0.02,0 -0.03,0 -1.76,0 -3.11,0.66 -4.07,1.99 -0.83,1.17 -1.25,2.65 -1.25,4.43l0 11.78 -4.99 0 0 -15.38c0,-0.11 0,-0.2 0,-0.3 0,-2.25 -0.06,-4.55 -0.15,-6.78l4.36 0.01 0.18 4.3 0.14 0c0.53,-1.48 1.36,-2.67 2.5,-3.56 1.04,-0.78 2.31,-1.2 3.61,-1.2 0.46,0 0.88,0.03 1.25,0.09l0.01 4.76 -0 0zm22.32 5.78c0,0.06 0,0.13 0,0.2 0,0.69 -0.06,1.39 -0.18,2.07l-14.97 -0c0.06,2.22 0.78,3.92 2.17,5.09 1.26,1.04 2.89,1.57 4.9,1.57 2.22,0 4.24,-0.35 6.06,-1.06l0.78 3.46c-2.13,0.93 -4.63,1.39 -7.53,1.39 -3.48,0 -6.22,-1.03 -8.21,-3.07 -1.99,-2.05 -2.98,-4.8 -2.98,-8.25 0,-3.38 0.92,-6.2 2.78,-8.45 1.94,-2.4 4.56,-3.6 7.85,-3.6 3.24,0 5.69,1.2 7.35,3.6 1.32,1.9 1.98,4.26 1.98,7.06l-0 -0zm-4.76 -1.29c0.04,-1.48 -0.29,-2.76 -0.97,-3.84 -0.86,-1.39 -2.19,-2.08 -3.97,-2.08 -1.63,0 -2.96,0.68 -3.97,2.03 -0.83,1.08 -1.33,2.38 -1.48,3.88l10.39 0 0 0z"/>
   </g>
  </g>
 </g>
</svg>
