<svg xmlns="http://www.w3.org/2000/svg" width="50" height="50" fill="none" viewBox="0 0 50 50"><g clip-path="url(#clip0_291_9)"><path fill="#010101" d="M43.723 50.0007H6.28744C2.85981 50.0007 0 47.3061 0 43.8991C0 43.8268 0 43.8268 0 43.7545V6.23638C0 2.82939 2.71527 -0.00976562 6.1429 -0.00976562C6.21517 -0.00976562 6.21517 -0.00976562 6.28744 -0.00976562H43.723C47.1506 -0.00976562 50.0104 2.68485 50.0104 6.09184C50.0104 6.16411 50.0104 6.16411 50.0104 6.23638V43.7545C50.0104 47.1615 47.2952 50.0007 43.8675 50.0007C43.7953 50.0007 43.7953 50.0007 43.723 50.0007Z"/><path fill="#fff" d="M33.584 26.008C33.615 23.551 34.906 21.29 36.991 20.01 35.67 18.12 33.533 16.964 31.22 16.892 28.794 16.634 26.44 18.347 25.201 18.347 23.941 18.347 22.031 16.923 19.987 16.964 17.293 17.047 14.835 18.544 13.524 20.908 10.726 25.75 12.812 32.863 15.496 36.776 16.838 38.696 18.397 40.834 20.452 40.751 22.455 40.668 23.208 39.471 25.624 39.471 28.019 39.471 28.721 40.751 30.817 40.699 32.965 40.668 34.327 38.779 35.618 36.838 36.578 35.475 37.321 33.958 37.807 32.368 35.257 31.284 33.594 28.785 33.584 26.008ZM29.64 14.31C30.693 13.051 31.272 11.45 31.272 9.799 31.272 9.623 31.261 9.437 31.251 9.262 29.455 9.448 27.803 10.305 26.615 11.657 25.542 12.875 24.953 14.455 24.953 16.076 24.953 16.22 24.953 16.365 24.963 16.509 24.984 16.509 25.005 16.509 25.025 16.509 26.822 16.509 28.515 15.694 29.64 14.3V14.31Z"/><path fill="#a7a6a6" d="M43.723 0.991124C46.6551 0.991124 49.009 3.33472 49.009 6.23582V43.754C49.009 46.6654 46.6551 48.9987 43.723 48.9987H6.28744C3.35537 48.9987 1.00145 46.6551 1.00145 43.754V6.23582C1.00145 3.32439 3.35537 0.991124 6.28744 0.991124H43.723ZM43.723 0H6.28744C2.78754 0 0 2.83916 0 6.24614V43.7643C0 47.1713 2.71527 50.0104 6.1429 50.0104C6.21517 50.0104 6.21517 50.0104 6.28744 50.0104H43.723C47.1506 50.0104 50.0104 47.3158 50.0104 43.9088C50.0104 43.8366 50.0104 43.8366 50.0104 43.7643V6.24614C50.0104 2.83916 47.2229 0 43.723 0Z"/></g><defs><clipPath id="clip0_291_9"><path fill="#fff" d="M0 0H50.0001V50.0001H0z"/></clipPath></defs></svg>