<svg xmlns="http://www.w3.org/2000/svg" width="64px" height="64px" fill="none" viewBox="0 0 24 24"><g id="SVGRepo_iconCarrier" stroke="#7e7e7e" stroke-linecap="round" stroke-linejoin="round" stroke-miterlimit="10" stroke-width="1.5"><path d="M12.37 2.15 21.37 5.75C21.72 5.89 22 6.31 22 6.68V10C22 10.55 21.55 11 21 11H3C2.45 11 2 10.55 2 10V6.68C2 6.31 2.28 5.89 2.63 5.75L11.63 2.15C11.83 2.07 12.17 2.07 12.37 2.15ZM22 22H2V19C2 18.45 2.45 18 3 18H21C21.55 18 22 18.45 22 19V22ZM4 18V11M8 18V11M12 18V11M16 18V11M20 18V11M1 22H23"/><path d="M12 8.5C12.8284 8.5 13.5 7.82843 13.5 7C13.5 6.17157 12.8284 5.5 12 5.5C11.1716 5.5 10.5 6.17157 10.5 7C10.5 7.82843 11.1716 8.5 12 8.5Z"/></g></svg>